<svg xmlns="http://www.w3.org/2000/svg" viewBox="0 0 177.52808 233.86739">
  <defs>
    <style>
      .cls-1 {
        fill: #fff;
      }
    </style>
  </defs>
  <title>todo</title>
  <g id="Слой_2" >
    <g id="Слой_1-2" >
      <g>
        <path class="cls-1" d="M127.35583,121.69617a16.20592,16.20592,0,0,0-8.26074-2.24414,15.65538,15.65538,0,0,0-8.06347,2.22949,15.86635,15.86635,0,0,0-5.97754,5.98828,16.71535,16.71535,0,0,0-2.15039,8.50391,16.14732,16.14732,0,0,0,16.1914,16.31054,16.4442,16.4442,0,0,0,8.35938-2.18261,15.28094,15.28094,0,0,0,5.89648-5.88575,16.75555,16.75555,0,0,0,2.14063-8.48144,16.24089,16.24089,0,0,0-2.12207-8.33106A15.79137,15.79137,0,0,0,127.35583,121.69617Z"/>
        <path class="cls-1" d="M62.3114,121.96863c-1.71826-.52246-5.2959-1.13867-12.65137-1.21094v30.59863h.81055c8.3877,0,11.69922-.66211,12.92627-1.05761a11.69251,11.69251,0,0,0,6.312-4.68457,15.45791,15.45791,0,0,0,2.3877-8.92872,16.503,16.503,0,0,0-2.6499-9.61132A12.7614,12.7614,0,0,0,62.3114,121.96863Z"/>
        <path class="cls-1" d="M154.77527,0H22.75281A22.7528,22.7528,0,0,0,0,22.75281V150.63416a10.31,10.31,0,0,0,3.2038,7.4699l76.6535,72.923a10.31025,10.31025,0,0,0,14.04694.15436l80.25421-73.0578a10.31029,10.31029,0,0,0,3.36963-7.62421V22.75281A22.7528,22.7528,0,0,0,154.77527,0ZM83.72156,36.29285a30.89326,30.89326,0,0,1,27.0083-15.72852,31.041,31.041,0,0,1,22.63769,9.06934,30.3272,30.3272,0,0,1,9.17676,22.31738A31.23888,31.23888,0,0,1,111.14,83.372a30.68336,30.68336,0,0,1-22.40527-9.11182,30.11409,30.11409,0,0,1-9.16846-22.06982A31.8513,31.8513,0,0,1,83.72156,36.29285ZM40.993,21.829H78.54187V36.75085H67.33093V82.1073H52.204V36.75085H40.993Zm42.2793,130.53809a25.92256,25.92256,0,0,1-10.50147,10.43359c-4.24023,2.22461-9.77978,3.30664-16.93408,3.30664H34.8407V105.829H50.2655c8.168,0,14.0708.6875,18.04688,2.10059a26.85526,26.85526,0,0,1,13.94775,10.86816,32.02908,32.02908,0,0,1,4.9292,17.80273A31.48738,31.48738,0,0,1,83.27234,152.36707Zm58.27392,5.84765a31.87094,31.87094,0,0,1-44.66894.04492,30.11184,30.11184,0,0,1-9.16895-22.06933,31.86168,31.86168,0,0,1,4.15528-15.89746,30.89744,30.89744,0,0,1,27.00879-15.72852,31.043,31.043,0,0,1,22.63769,9.06934,31.70483,31.70483,0,0,1,.03613,44.58105Z"/>
        <path class="cls-1" d="M110.95251,68.48425a16.44417,16.44417,0,0,0,8.35938-2.18261,15.28747,15.28747,0,0,0,5.89648-5.88575A16.75735,16.75735,0,0,0,127.349,51.934a16.23909,16.23909,0,0,0-2.12207-8.33057,15.79607,15.79607,0,0,0-6.01367-5.90771,16.20508,16.20508,0,0,0-8.26075-2.24365,15.65483,15.65483,0,0,0-8.06347,2.229,15.847,15.847,0,0,0-5.97559,5.98682,16.71606,16.71606,0,0,0-2.15234,8.50537,16.14733,16.14733,0,0,0,16.1914,16.311Z"/>
      </g>
    </g>
  </g>
</svg>
