<svg xmlns="http://www.w3.org/2000/svg" viewBox="0 0 512 512">
  <defs>
    <style>
      .cls-1 {
        fill: #3800b4;
      }

      .cls-2 {
        fill: #fff;
      }

      .cls-3 {
        fill: none;
        stroke: #3800b4;
        stroke-miterlimit: 10;
        stroke-width: 10px;
      }
    </style>
  </defs>
  <title>todo</title>
  <g id="Слой_2" >
    <g id="Слой_1-2" >
      <rect class="cls-1" width="512" height="512"/>
      <path class="cls-2" d="M172.39483,309.39621l76.65352,72.923a10.31018,10.31018,0,0,0,14.04691.15431l80.25421-73.05777a10.31017,10.31017,0,0,0,3.36963-7.62421V174.04494a22.75281,22.75281,0,0,0-22.75281-22.75281H191.94382A22.75281,22.75281,0,0,0,169.191,174.04494V301.92631A10.31015,10.31015,0,0,0,172.39483,309.39621Z"/>
      <g>
        <path class="cls-3" d="M215.18406,183.043v-4.92188h27.54883V183.043H231.522v45.35644H226.395V183.043Z"/>
        <path class="cls-3" d="M279.92136,176.85645a26.09036,26.09036,0,0,1,19.11915,7.62207,26.42988,26.42988,0,0,1-18.709,45.18554,25.735,25.735,0,0,1-18.87891-7.65625,25.16932,25.16932,0,0,1-7.69531-18.52539,26.79082,26.79082,0,0,1,3.50537-13.43262,25.89452,25.89452,0,0,1,22.65869-13.19335Zm.22266,4.88769a21.46745,21.46745,0,0,0-18.38428,10.74121,21.77784,21.77784,0,0,0-2.80713,10.98,21.14742,21.14742,0,0,0,21.19141,21.311,21.5089,21.5089,0,0,0,10.835-2.83887,20.336,20.336,0,0,0,7.77149-7.76465,21.82793,21.82793,0,0,0,2.79-10.94678,21.29287,21.29287,0,0,0-2.79-10.82666,20.84769,20.84769,0,0,0-7.85645-7.74755A21.26318,21.26318,0,0,0,280.144,181.74414Z"/>
        <path class="cls-3" d="M209.03172,312.39941V262.12109h10.4248q11.27929,0,16.37207,1.81153a21.88862,21.88862,0,0,1,11.43311,8.88672,27.00553,27.00553,0,0,1,4.11865,15.07324,26.43927,26.43927,0,0,1-3.26416,13.2959,20.92092,20.92092,0,0,1-8.47656,8.47656q-5.21265,2.73486-14.61182,2.73437Zm4.81933-4.751h5.81055q10.42457,0,14.458-1.29785a16.67765,16.67765,0,0,0,8.9209-6.64161,20.44763,20.44763,0,0,0,3.24707-11.73144,21.51655,21.51655,0,0,0-3.52051-12.43066,17.73085,17.73085,0,0,0-9.80957-7.06934q-4.7168-1.43409-15.55176-1.43457h-3.55469Z"/>
        <path class="cls-3" d="M288.06394,260.85645a26.09034,26.09034,0,0,1,19.11914,7.62207,26.42988,26.42988,0,0,1-18.709,45.18554,25.735,25.735,0,0,1-18.87891-7.65625,25.17042,25.17042,0,0,1-7.69531-18.52539,26.79385,26.79385,0,0,1,3.50586-13.43262,25.8956,25.8956,0,0,1,22.6582-13.19335Zm.22266,4.88769a20.70776,20.70776,0,0,0-10.57813,2.9082,20.91879,20.91879,0,0,0-7.80664,7.833,21.78431,21.78431,0,0,0-2.80664,10.98047,21.14658,21.14658,0,0,0,21.19141,21.31055,21.5089,21.5089,0,0,0,10.835-2.83887,20.32917,20.32917,0,0,0,7.77148-7.76465,21.82731,21.82731,0,0,0,2.79-10.94629,21.29458,21.29458,0,0,0-2.79-10.82715,20.84294,20.84294,0,0,0-7.85644-7.74707A21.2638,21.2638,0,0,0,288.2866,265.74414Z"/>
      </g>
    </g>
  </g>
</svg>
